<svg width="21" height="21" viewBox="0 0 21 21" fill="none" xmlns="http://www.w3.org/2000/svg">
    <path
        d="M19.7158 0.295798C19.6228 0.20207 19.5122 0.127676 19.3904 0.0769069C19.2685 0.0261382 19.1378 0 19.0058 0C18.8738 0 18.7431 0.0261382 18.6212 0.0769069C18.4994 0.127676 18.3888 0.20207 18.2958 0.295798L12.5058 6.0958V4.5058C12.5058 4.24058 12.4004 3.98623 12.2129 3.79869C12.0254 3.61116 11.771 3.5058 11.5058 3.5058C11.2406 3.5058 10.9862 3.61116 10.7987 3.79869C10.6112 3.98623 10.5058 4.24058 10.5058 4.5058V8.5058C10.5074 8.63648 10.5346 8.76558 10.5858 8.8858C10.6873 9.13015 10.8814 9.32432 11.1258 9.4258C11.246 9.47704 11.3751 9.50422 11.5058 9.5058H15.5058C15.771 9.5058 16.0254 9.40044 16.2129 9.2129C16.4004 9.02537 16.5058 8.77101 16.5058 8.5058C16.5058 8.24058 16.4004 7.98623 16.2129 7.79869C16.0254 7.61116 15.771 7.5058 15.5058 7.5058H13.9158L19.7158 1.7158C19.8095 1.62284 19.8839 1.51223 19.9347 1.39037C19.9855 1.26852 20.0116 1.13781 20.0116 1.0058C20.0116 0.873786 19.9855 0.743081 19.9347 0.621222C19.8839 0.499363 19.8095 0.388761 19.7158 0.295798V0.295798ZM8.8858 10.5858C8.76558 10.5346 8.63648 10.5074 8.5058 10.5058H4.5058C4.24058 10.5058 3.98623 10.6112 3.79869 10.7987C3.61116 10.9862 3.5058 11.2406 3.5058 11.5058C3.5058 11.771 3.61116 12.0254 3.79869 12.2129C3.98623 12.4004 4.24058 12.5058 4.5058 12.5058H6.0958L0.295798 18.2958C0.20207 18.3888 0.127676 18.4994 0.0769069 18.6212C0.0261382 18.7431 0 18.8738 0 19.0058C0 19.1378 0.0261382 19.2685 0.0769069 19.3904C0.127676 19.5122 0.20207 19.6228 0.295798 19.7158C0.388761 19.8095 0.499363 19.8839 0.621222 19.9347C0.743081 19.9855 0.873786 20.0116 1.0058 20.0116C1.13781 20.0116 1.26852 19.9855 1.39037 19.9347C1.51223 19.8839 1.62284 19.8095 1.7158 19.7158L7.5058 13.9158V15.5058C7.5058 15.771 7.61116 16.0254 7.79869 16.2129C7.98623 16.4004 8.24058 16.5058 8.5058 16.5058C8.77101 16.5058 9.02537 16.4004 9.2129 16.2129C9.40044 16.0254 9.5058 15.771 9.5058 15.5058V11.5058C9.50422 11.3751 9.47704 11.246 9.4258 11.1258C9.32432 10.8814 9.13015 10.6873 8.8858 10.5858Z"
        fill="#339966" />
</svg>