<svg width="40" height="40" viewBox="0 0 40 40" fill="none" xmlns="http://www.w3.org/2000/svg">
<path fill-rule="evenodd" clip-rule="evenodd" d="M19.871 1C34.2553 1 38.7419 6.17501 38.7419 19.871C38.7419 33.5669 34.2553 38.7419 19.871 38.7419C5.48659 38.7419 1 33.5669 1 19.871C1 6.17501 5.48659 1 19.871 1Z" stroke="white"/>
<path d="M17.5 17.3334C17.5 17.0573 17.7239 16.8334 18 16.8334H22.6667C22.9428 16.8334 23.1667 17.0573 23.1667 17.3334C23.1667 17.6096 22.9428 17.8334 22.6667 17.8334H18C17.7239 17.8334 17.5 17.6096 17.5 17.3334Z" fill="white"/>
<path d="M18 18.8334C17.7239 18.8334 17.5 19.0573 17.5 19.3334C17.5 19.6096 17.7239 19.8334 18 19.8334H21.3333C21.6095 19.8334 21.8333 19.6096 21.8333 19.3334C21.8333 19.0573 21.6095 18.8334 21.3333 18.8334H18Z" fill="white"/>
<path fill-rule="evenodd" clip-rule="evenodd" d="M17.6667 14.1667C15.9178 14.1667 14.5 15.5845 14.5 17.3334V24.0001C14.5 25.3808 15.6193 26.5001 17 26.5001H24.3333C24.9777 26.5001 25.5 25.9777 25.5 25.3334V15.3334C25.5 14.6891 24.9777 14.1667 24.3333 14.1667H17.6667ZM24.5 21.5001V15.3334C24.5 15.2414 24.4254 15.1667 24.3333 15.1667H17.6667C16.47 15.1667 15.5 16.1368 15.5 17.3334V21.9999C15.9178 21.6861 16.4372 21.5001 17 21.5001H24.5ZM24.5 22.5001H17C16.1716 22.5001 15.5 23.1717 15.5 24.0001C15.5 24.8285 16.1716 25.5001 17 25.5001H24.3333C24.4254 25.5001 24.5 25.4255 24.5 25.3334V22.5001Z" fill="white"/>
</svg>
