<svg width="20" height="20" viewBox="0 0 20 20" fill="none" xmlns="http://www.w3.org/2000/svg">
    <path
        d="M7.79 10.79L2 16.59V15C2 14.7348 1.89464 14.4804 1.70711 14.2929C1.51957 14.1054 1.26522 14 1 14C0.734784 14 0.48043 14.1054 0.292893 14.2929C0.105357 14.4804 0 14.7348 0 15V19C0.00157999 19.1307 0.028759 19.2598 0.0799999 19.38C0.181475 19.6243 0.375651 19.8185 0.62 19.92C0.740222 19.9712 0.869323 19.9984 1 20H5C5.26522 20 5.51957 19.8946 5.70711 19.7071C5.89464 19.5196 6 19.2652 6 19C6 18.7348 5.89464 18.4804 5.70711 18.2929C5.51957 18.1054 5.26522 18 5 18H3.41L9.21 12.21C9.3983 12.0217 9.50409 11.7663 9.50409 11.5C9.50409 11.2337 9.3983 10.9783 9.21 10.79C9.0217 10.6017 8.7663 10.4959 8.5 10.4959C8.2337 10.4959 7.9783 10.6017 7.79 10.79V10.79ZM19.92 0.62C19.8185 0.375651 19.6243 0.181475 19.38 0.0799999C19.2598 0.028759 19.1307 0.00157999 19 0H15C14.7348 0 14.4804 0.105357 14.2929 0.292893C14.1054 0.48043 14 0.734784 14 1C14 1.26522 14.1054 1.51957 14.2929 1.70711C14.4804 1.89464 14.7348 2 15 2H16.59L10.79 7.79C10.6963 7.88296 10.6219 7.99356 10.5711 8.11542C10.5203 8.23728 10.4942 8.36799 10.4942 8.5C10.4942 8.63201 10.5203 8.76272 10.5711 8.88458C10.6219 9.00644 10.6963 9.11704 10.79 9.21C10.883 9.30373 10.9936 9.37812 11.1154 9.42889C11.2373 9.47966 11.368 9.5058 11.5 9.5058C11.632 9.5058 11.7627 9.47966 11.8846 9.42889C12.0064 9.37812 12.117 9.30373 12.21 9.21L18 3.41V5C18 5.26522 18.1054 5.51957 18.2929 5.70711C18.4804 5.89464 18.7348 6 19 6C19.2652 6 19.5196 5.89464 19.7071 5.70711C19.8946 5.51957 20 5.26522 20 5V1C19.9984 0.869323 19.9712 0.740222 19.92 0.62Z"
        fill="#339966" />
</svg>