<svg width="160" height="46" viewBox="0 0 160 46" fill="none" xmlns="http://www.w3.org/2000/svg">
<path d="M0 5C0 2.23858 2.23858 0 5 0H155C157.761 0 160 2.23858 160 5V41C160 43.7614 157.761 46 155 46H5C2.23858 46 0 43.7614 0 41V5Z" fill="#339966"/>
<path opacity="0.22" fill-rule="evenodd" clip-rule="evenodd" d="M9.0674 15.2195L19.6008 20.5919L19.5983 9.87884L9.0674 15.2195ZM19.2143 21.38L8.55003 15.9408V26.8191L19.2143 21.38ZM20.5711 22.072L31.7001 27.86V29.84L20.5708 35.42L20.5711 22.072ZM31.8101 26.8191L21.1459 21.38L31.8101 15.9408V26.8191ZM19.6008 35.42L8.84008 30.02V27.68L19.6012 22.1678L19.6008 35.42ZM20.5682 9.78061L31.2928 15.2195L20.5708 20.6881L20.5682 9.78061ZM20.1801 8.59998L32.7801 14.99V30.74L20.1801 37.22L7.58008 30.74V14.99L20.1801 8.59998Z" fill="white"/>
<path d="M32.4787 14.7958C32.6219 14.8654 32.7442 14.9811 32.8209 15.1346C32.8245 15.1419 32.8281 15.1492 32.8315 15.1566C32.8389 15.1728 32.8458 15.1892 32.8521 15.2059C32.8867 15.2978 32.902 15.3921 32.9001 15.4851V20.72C32.9001 21.1342 32.5643 21.47 32.1501 21.47C31.7359 21.47 31.4001 21.1342 31.4001 20.72V16.6835L27.9855 18.3908C27.615 18.576 27.1645 18.4259 26.9792 18.0554C26.794 17.6849 26.9442 17.2344 27.3147 17.0491L30.473 15.47L27.3147 13.8908C26.9442 13.7055 26.794 13.255 26.9792 12.8846C27.1645 12.5141 27.615 12.3639 27.9855 12.5491L32.4787 14.7958ZM32.9001 30.4549C32.9024 30.565 32.8804 30.6771 32.8315 30.7833C32.7947 30.8632 32.7442 30.9362 32.6819 30.9988C32.6188 31.0615 32.5514 31.1088 32.4787 31.1442L27.9855 33.3908C27.615 33.576 27.1645 33.4259 26.9792 33.0554C26.794 32.6849 26.9442 32.2344 27.3147 32.0491L30.473 30.47L27.3147 28.8908C26.9442 28.7055 26.794 28.255 26.9792 27.8846C27.1645 27.5141 27.615 27.3639 27.9855 27.5491L31.4001 29.2564V25.22C31.4001 24.8058 31.7359 24.47 32.1501 24.47C32.5643 24.47 32.9001 24.8058 32.9001 25.22V30.4549ZM9.82712 30.47L12.9855 32.0491C13.356 32.2344 13.5061 32.6849 13.3209 33.0554C13.1356 33.4259 12.6851 33.576 12.3147 33.3908L7.82143 31.1442C7.67822 31.0745 7.55598 30.9588 7.47925 30.8054C7.47559 30.7981 7.47206 30.7907 7.46866 30.7833C7.46122 30.7672 7.45435 30.7507 7.44807 30.734C7.41347 30.6421 7.39812 30.5478 7.40007 30.4549V25.22C7.40007 24.8058 7.73585 24.47 8.15007 24.47C8.56428 24.47 8.90007 24.8058 8.90007 25.22V29.2564L12.3147 27.5491C12.6851 27.3639 13.1356 27.5141 13.3209 27.8846C13.5061 28.255 13.356 28.7055 12.9855 28.8908L9.82712 30.47ZM8.90007 16.6835V20.72C8.90007 21.1342 8.56428 21.47 8.15007 21.47C7.73585 21.47 7.40007 21.1342 7.40007 20.72V15.4851C7.39776 15.3749 7.41974 15.2628 7.46866 15.1566C7.5054 15.0768 7.55598 15.0037 7.61821 14.9411C7.68136 14.8784 7.74869 14.8312 7.82143 14.7958L12.3147 12.5491C12.6851 12.3639 13.1356 12.5141 13.3209 12.8846C13.5061 13.255 13.356 13.7055 12.9855 13.8908L9.82712 15.47L12.9855 17.0491C13.356 17.2344 13.5061 17.6849 13.3209 18.0554C13.1356 18.4259 12.6851 18.576 12.3147 18.3908L8.90007 16.6835ZM19.8012 8.8059C19.9054 8.75103 20.0241 8.71997 20.1501 8.71997C20.276 8.71997 20.3948 8.75103 20.499 8.8059L24.9855 11.0491C25.356 11.2344 25.5061 11.6849 25.3209 12.0554C25.1356 12.4259 24.6851 12.576 24.3147 12.3908L20.9001 10.6835V14.72C20.9001 15.1342 20.5643 15.47 20.1501 15.47C19.7359 15.47 19.4001 15.1342 19.4001 14.72V10.6835L15.9855 12.3908C15.615 12.576 15.1645 12.4259 14.9792 12.0554C14.794 11.6849 14.9442 11.2344 15.3147 11.0491L19.8012 8.8059ZM20.499 37.134C20.3948 37.1889 20.276 37.22 20.1501 37.22C20.0241 37.22 19.9054 37.1889 19.8012 37.134L15.3147 34.8908C14.9442 34.7055 14.794 34.255 14.9792 33.8846C15.1645 33.5141 15.615 33.3639 15.9855 33.5491L19.4001 35.2564V31.22C19.4001 30.8058 19.7359 30.47 20.1501 30.47C20.5643 30.47 20.9001 30.8058 20.9001 31.22V35.2564L24.3147 33.5491C24.6851 33.3639 25.1356 33.5141 25.3209 33.8846C25.5061 34.255 25.356 34.7055 24.9855 34.8908L20.499 37.134ZM20.9001 21.9335V25.97C20.9001 26.3842 20.5643 26.72 20.1501 26.72C19.7359 26.72 19.4001 26.3842 19.4001 25.97V21.9335L15.3147 19.8908C14.9442 19.7055 14.794 19.255 14.9792 18.8846C15.1645 18.5141 15.615 18.3639 15.9855 18.5491L20.1501 20.6314L24.3147 18.5491C24.6851 18.3639 25.1356 18.5141 25.3209 18.8846C25.5061 19.255 25.356 19.7055 24.9855 19.8908L22.9428 20.9121L20.9001 21.9335Z" fill="white"/>
<path d="M50.4551 26.4043L54.0684 15.2812H56.7832L51.666 29.5H49.2734L44.1758 15.2812H46.8809L50.4551 26.4043ZM61.4895 29.5H59.1164V18.9336H61.4895V29.5ZM58.9699 16.1895C58.9699 15.8249 59.0839 15.5221 59.3117 15.2812C59.5461 15.0404 59.8781 14.9199 60.3078 14.9199C60.7375 14.9199 61.0695 15.0404 61.3039 15.2812C61.5383 15.5221 61.6555 15.8249 61.6555 16.1895C61.6555 16.5475 61.5383 16.847 61.3039 17.0879C61.0695 17.3223 60.7375 17.4395 60.3078 17.4395C59.8781 17.4395 59.5461 17.3223 59.3117 17.0879C59.0839 16.847 58.9699 16.5475 58.9699 16.1895ZM69.5355 29.6953C68.0316 29.6953 66.8109 29.2233 65.8734 28.2793C64.9424 27.3288 64.477 26.0658 64.477 24.4902V24.1973C64.477 23.1426 64.6788 22.2018 65.0824 21.375C65.4926 20.5417 66.0655 19.8939 66.8012 19.4316C67.5368 18.9694 68.3572 18.7383 69.2621 18.7383C70.7009 18.7383 71.8109 19.1973 72.5922 20.1152C73.3799 21.0332 73.7738 22.332 73.7738 24.0117V24.9688H66.8695C66.9411 25.8411 67.2309 26.5312 67.7387 27.0391C68.253 27.5469 68.8975 27.8008 69.6723 27.8008C70.7595 27.8008 71.6449 27.3613 72.3285 26.4824L73.6078 27.7031C73.1846 28.3346 72.6182 28.8262 71.9086 29.1777C71.2055 29.5228 70.4145 29.6953 69.5355 29.6953ZM69.2523 20.6426C68.6013 20.6426 68.074 20.8704 67.6703 21.3262C67.2732 21.7819 67.0193 22.4167 66.9086 23.2305H71.4301V23.0547C71.378 22.2604 71.1664 21.6615 70.7953 21.2578C70.4242 20.8477 69.9099 20.6426 69.2523 20.6426ZM85.7066 26.2285L87.3863 18.9336H89.7008L86.8199 29.5H84.8668L82.6012 22.2441L80.3746 29.5H78.4215L75.5309 18.9336H77.8453L79.5543 26.1504L81.7223 18.9336H83.5094L85.7066 26.2285ZM100.393 29.5H98.0195V18.9336H100.393V29.5ZM97.873 16.1895C97.873 15.8249 97.987 15.5221 98.2148 15.2812C98.4492 15.0404 98.7812 14.9199 99.2109 14.9199C99.6406 14.9199 99.9727 15.0404 100.207 15.2812C100.441 15.5221 100.559 15.8249 100.559 16.1895C100.559 16.5475 100.441 16.847 100.207 17.0879C99.9727 17.3223 99.6406 17.4395 99.2109 17.4395C98.7812 17.4395 98.4492 17.3223 98.2148 17.0879C97.987 16.847 97.873 16.5475 97.873 16.1895ZM105.987 18.9336L106.056 20.1543C106.837 19.2103 107.862 18.7383 109.132 18.7383C111.333 18.7383 112.452 19.998 112.491 22.5176V29.5H110.118V22.6543C110.118 21.9837 109.972 21.4889 109.679 21.1699C109.392 20.8444 108.92 20.6816 108.263 20.6816C107.306 20.6816 106.593 21.1146 106.124 21.9805V29.5H103.751V18.9336H105.987ZM129.687 26.1895H124.179L123.027 29.5H120.459L125.83 15.2812H128.046L133.427 29.5H130.849L129.687 26.1895ZM124.873 24.1973H128.994L126.933 18.2988L124.873 24.1973ZM141.073 24.0215H138.319V29.5H135.848V15.2812H140.848C142.489 15.2812 143.755 15.6491 144.647 16.3848C145.539 17.1204 145.985 18.1849 145.985 19.5781C145.985 20.5286 145.754 21.3262 145.292 21.9707C144.836 22.6087 144.198 23.1003 143.378 23.4453L146.571 29.373V29.5H143.925L141.073 24.0215ZM138.319 22.0391H140.858C141.692 22.0391 142.343 21.8307 142.811 21.4141C143.28 20.9909 143.514 20.4147 143.514 19.6855C143.514 18.9238 143.296 18.3346 142.86 17.918C142.43 17.5013 141.786 17.2865 140.927 17.2734H138.319V22.0391Z" fill="white"/>
</svg>
